# xmcd
#
# Track frame offsets: 
#        150
#        31755
#        51782
#        82307
#        98022
#        107272
#        116665
#        134605
#        149592
#        178047
#        204575
#        231075
#        245730
#        271080
#        290715
#
# Disc length: 4225 seconds
#
# Revision: 0
# Processed by: cddbd v1.5.2PL0 Copyright (c) Steve Scherf et al.
# Submitted via: ExactAudioCopy v0.95b4
#
DISCID=de107f0f
DTITLE=Dj Petros - Sunrise Zone
DYEAR=1995
DGENRE=Psychedelic
TTITLE0=Humate And Rabbit At The Moon - East
TTITLE1=Peter Lazonby - Sacred Cycles
TTITLE2=Mrs-Wood - Joanna
TTITLE3=Minimal Man - Treatment Feel
TTITLE4=Speedy J - G Spot
TTITLE5=Taho - Amazing World
TTITLE6=The Graf - Stargazor
TTITLE7=Clino - Spectralized
TTITLE8=Marmion - Schoeneberg
TTITLE9=Prana - Scarab
TTITLE10=Climax Absolute - Parijatak
TTITLE11=L.S.G - My Time Is Yours
TTITLE12=100th Monkey And Tristan - Gobi Desert
TTITLE13=Adrenalin Drum - Hard Dome
TTITLE14=Paragliders - Oasis
EXTD=
EXTT0=
EXTT1=
EXTT2=
EXTT3=
EXTT4=
EXTT5=
EXTT6=
EXTT7=
EXTT8=
EXTT9=
EXTT10=
EXTT11=
EXTT12=
EXTT13=
EXTT14=
PLAYORDER=
